{
	"asset":{
		"generator":"Khronos glTF Blender I/O v5.0.21",
		"version":"2.0"
	},
	"scene":0,
	"scenes":[
		{
			"name":"Scene",
			"nodes":[
				0,
				1,
				3,
				4,
				5,
				6,
				7,
				8
			]
		}
	],
	"nodes":[
		{
			"mesh":0,
			"name":"Cake",
			"scale":[
				0.9521910548210144,
				0.9182052612304688,
				0.9521910548210144
			],
			"translation":[
				0,
				1.8900001049041748,
				0
			]
		},
		{
			"mesh":1,
			"name":"cream",
			"rotation":[
				0.7070215940475464,
				0,
				0,
				0.7071920037269592
			],
			"scale":[
				0.10271934419870377,
				0.10271933674812317,
				0.10271933674812317
			],
			"translation":[
				0,
				1.4050045013427734,
				0
			]
		},
		{
			"mesh":2,
			"name":"Base-2",
			"scale":[
				1.007614016532898,
				1.007614016532898,
				1.007614016532898
			],
			"translation":[
				0,
				0,
				-27.200000762939453
			]
		},
		{
			"children":[
				2
			],
			"name":"stand",
			"rotation":[
				0.70710688829422,
				0,
				0,
				0.7071066498756409
			],
			"scale":[
				0.06730819493532181,
				0.06730818003416061,
				0.06730818003416061
			]
		},
		{
			"mesh":3,
			"name":"chandel",
			"rotation":[
				-0.70710688829422,
				0,
				0,
				0.7071066498756409
			],
			"scale":[
				-0.032398007810115814,
				-0.032398007810115814,
				-0.032398007810115814
			],
			"translation":[
				0.016614342108368874,
				2.3299996852874756,
				0.06408972293138504
			]
		},
		{
			"mesh":4,
			"name":"nuts",
			"rotation":[
				0.1166791170835495,
				0.6974138021469116,
				-0.6974138021469116,
				0.11667916178703308
			],
			"scale":[
				0.17769505083560944,
				0.17769500613212585,
				0.17769496142864227
			],
			"translation":[
				0.08000002801418304,
				2.309999942779541,
				0.41999998688697815
			]
		},
		{
			"mesh":5,
			"name":"bar",
			"rotation":[
				-0.3871666193008423,
				-0.8715487718582153,
				0.2227635681629181,
				0.20219086110591888
			],
			"scale":[
				0.09674941748380661,
				0.09674941748380661,
				0.0967494398355484
			],
			"translation":[
				0,
				2.5,
				0
			]
		},
		{
			"mesh":6,
			"name":"balls",
			"rotation":[
				-0.8819843530654907,
				-0.10750564187765121,
				-0.24399906396865845,
				0.3886010944843292
			],
			"scale":[
				-0.06322962790727615,
				-0.06322965770959854,
				-0.06322965025901794
			],
			"translation":[
				0.26943549513816833,
				2.4380087852478027,
				-0.05041871964931488
			]
		},
		{
			"mesh":7,
			"name":"Cake_Rectangle"
		}
	],
	"materials":[
		{
			"doubleSided":true,
			"name":"Cake",
			"pbrMetallicRoughness":{
				"baseColorFactor":[
					0.798916220664978,
					0.3718603551387787,
					0.8000000715255737,
					1
				],
				"metallicFactor":0,
				"roughnessFactor":0.7134328484535217
			}
		},
		{
			"doubleSided":true,
			"name":"Cream",
			"pbrMetallicRoughness":{
				"baseColorFactor":[
					0.8000000715255737,
					0.5061811208724976,
					0.24147473275661469,
					1
				],
				"roughnessFactor":0.5527864098548889
			}
		},
		{
			"doubleSided":true,
			"name":"Strip Part",
			"pbrMetallicRoughness":{
				"baseColorFactor":[
					0.800000011920929,
					0.800000011920929,
					0.800000011920929,
					1
				],
				"roughnessFactor":0.5527864098548889
			}
		},
		{
			"doubleSided":true,
			"name":"Primary Part",
			"pbrMetallicRoughness":{
				"baseColorFactor":[
					0.800000011920929,
					0.800000011920929,
					0.800000011920929,
					1
				],
				"roughnessFactor":0.5527864098548889
			}
		},
		{
			"doubleSided":true,
			"name":"Add Part M",
			"pbrMetallicRoughness":{
				"baseColorFactor":[
					0.800000011920929,
					0.800000011920929,
					0.800000011920929,
					1
				],
				"roughnessFactor":0.5527864098548889
			}
		},
		{
			"doubleSided":true,
			"name":"plastic1",
			"pbrMetallicRoughness":{
				"baseColorFactor":[
					0.9054136872291565,
					0.9054136872291565,
					0.9054136872291565,
					1
				],
				"roughnessFactor":0.4763636589050293
			}
		},
		{
			"doubleSided":true,
			"name":"chandel",
			"pbrMetallicRoughness":{
				"baseColorFactor":[
					1,
					0.7438003420829773,
					0.06327110528945923,
					1
				],
				"roughnessFactor":0.5
			}
		},
		{
			"doubleSided":true,
			"name":"Default",
			"pbrMetallicRoughness":{
				"baseColorFactor":[
					0.39015689492225647,
					0.1246422529220581,
					0.05855438858270645,
					1
				],
				"metallicFactor":0.29357796907424927,
				"roughnessFactor":0.5527864098548889
			}
		},
		{
			"doubleSided":true,
			"name":"choco",
			"pbrMetallicRoughness":{
				"baseColorFactor":[
					0.8000000715255737,
					0.3774730861186981,
					0.1561039686203003,
					1
				],
				"metallicFactor":0.41044774651527405,
				"roughnessFactor":0.4000000059604645
			}
		},
		{
			"doubleSided":true,
			"name":"balls",
			"pbrMetallicRoughness":{
				"baseColorFactor":[
					0.8000000715255737,
					0.7753702402114868,
					0.4842037856578827,
					1
				],
				"metallicFactor":0.447761207818985,
				"roughnessFactor":0.4000000059604645
			}
		}
	],
	"meshes":[
		{
			"name":"Cake",
			"primitives":[
				{
					"attributes":{
						"POSITION":0,
						"NORMAL":1,
						"TEXCOORD_0":2
					},
					"indices":3,
					"material":0
				}
			]
		},
		{
			"name":"Mesh.002",
			"primitives":[
				{
					"attributes":{
						"POSITION":4,
						"NORMAL":5,
						"TEXCOORD_0":6
					},
					"indices":7,
					"material":1
				}
			]
		},
		{
			"name":"Mesh.004",
			"primitives":[
				{
					"attributes":{
						"POSITION":8,
						"NORMAL":9,
						"TEXCOORD_0":10,
						"TEXCOORD_1":11
					},
					"indices":12,
					"material":2
				},
				{
					"attributes":{
						"POSITION":13,
						"NORMAL":14,
						"TEXCOORD_0":15,
						"TEXCOORD_1":16
					},
					"indices":17,
					"material":3
				},
				{
					"attributes":{
						"POSITION":18,
						"NORMAL":19,
						"TEXCOORD_0":20,
						"TEXCOORD_1":21
					},
					"indices":22,
					"material":4
				},
				{
					"attributes":{
						"POSITION":23,
						"NORMAL":24,
						"TEXCOORD_0":25,
						"TEXCOORD_1":26
					},
					"indices":27,
					"material":5
				}
			]
		},
		{
			"name":"chandel",
			"primitives":[
				{
					"attributes":{
						"POSITION":28,
						"NORMAL":29,
						"TEXCOORD_0":30
					},
					"indices":31,
					"material":6
				}
			]
		},
		{
			"name":"Mesh.021",
			"primitives":[
				{
					"attributes":{
						"POSITION":32,
						"NORMAL":33,
						"TEXCOORD_0":34,
						"TEXCOORD_1":35,
						"TEXCOORD_2":36,
						"TEXCOORD_3":37,
						"TEXCOORD_4":38,
						"TEXCOORD_5":39,
						"TEXCOORD_6":40,
						"TEXCOORD_7":41
					},
					"indices":42,
					"material":7
				}
			]
		},
		{
			"name":"bar",
			"primitives":[
				{
					"attributes":{
						"POSITION":43,
						"NORMAL":44,
						"TEXCOORD_0":45
					},
					"indices":46,
					"material":8
				}
			]
		},
		{
			"name":"sphere-podium-01",
			"primitives":[
				{
					"attributes":{
						"POSITION":47,
						"NORMAL":48,
						"TEXCOORD_0":49
					},
					"indices":50,
					"material":9
				}
			]
		},
		{
			"name":"Cube.001",
			"primitives":[
				{
					"attributes":{
						"POSITION":51,
						"NORMAL":52,
						"TEXCOORD_0":53
					},
					"indices":54
				}
			]
		}
	],
	"accessors":[
		{
			"bufferView":0,
			"componentType":5126,
			"count":9264,
			"max":[
				1.0000001192092896,
				0.5049999952316284,
				1.0000001192092896
			],
			"min":[
				-1.0000001192092896,
				-0.5049999952316284,
				-1.0000001192092896
			],
			"type":"VEC3"
		},
		{
			"bufferView":1,
			"componentType":5126,
			"count":9264,
			"type":"VEC3"
		},
		{
			"bufferView":2,
			"componentType":5126,
			"count":9264,
			"type":"VEC2"
		},
		{
			"bufferView":3,
			"componentType":5123,
			"count":48948,
			"type":"SCALAR"
		},
		{
			"bufferView":4,
			"componentType":5126,
			"count":24570,
			"max":[
				9.844099998474121,
				10.787498474121094,
				-9.245100021362305
			],
			"min":[
				-9.844099998474121,
				-8.993300437927246,
				-10.316499710083008
			],
			"type":"VEC3"
		},
		{
			"bufferView":5,
			"componentType":5126,
			"count":24570,
			"type":"VEC3"
		},
		{
			"bufferView":6,
			"componentType":5126,
			"count":24570,
			"type":"VEC2"
		},
		{
			"bufferView":7,
			"componentType":5123,
			"count":45120,
			"type":"SCALAR"
		},
		{
			"bufferView":8,
			"componentType":5126,
			"count":8170,
			"max":[
				8.75037956237793,
				8.747909545898438,
				26.213991165161133
			],
			"min":[
				-8.746509552001953,
				-8.748979568481445,
				26.122730255126953
			],
			"type":"VEC3"
		},
		{
			"bufferView":9,
			"componentType":5126,
			"count":8170,
			"type":"VEC3"
		},
		{
			"bufferView":10,
			"componentType":5126,
			"count":8170,
			"type":"VEC2"
		},
		{
			"bufferView":11,
			"componentType":5126,
			"count":8170,
			"type":"VEC2"
		},
		{
			"bufferView":12,
			"componentType":5123,
			"count":34560,
			"type":"SCALAR"
		},
		{
			"bufferView":13,
			"componentType":5126,
			"count":52093,
			"max":[
				8.853130340576172,
				8.853519439697266,
				26.723876953125
			],
			"min":[
				-8.853110313415527,
				-8.852709770202637,
				26.124021530151367
			],
			"type":"VEC3"
		},
		{
			"bufferView":14,
			"componentType":5126,
			"count":52093,
			"type":"VEC3"
		},
		{
			"bufferView":15,
			"componentType":5126,
			"count":52093,
			"type":"VEC2"
		},
		{
			"bufferView":16,
			"componentType":5126,
			"count":52093,
			"type":"VEC2"
		},
		{
			"bufferView":17,
			"componentType":5123,
			"count":303828,
			"type":"SCALAR"
		},
		{
			"bufferView":18,
			"componentType":5126,
			"count":208521,
			"max":[
				8.747010231018066,
				8.744500160217285,
				26.20990562438965
			],
			"min":[
				-8.743090629577637,
				-8.745590209960938,
				6.342200756072998
			],
			"type":"VEC3"
		},
		{
			"bufferView":19,
			"componentType":5126,
			"count":208521,
			"type":"VEC3"
		},
		{
			"bufferView":20,
			"componentType":5126,
			"count":208521,
			"type":"VEC2"
		},
		{
			"bufferView":21,
			"componentType":5126,
			"count":208521,
			"type":"VEC2"
		},
		{
			"bufferView":22,
			"componentType":5125,
			"count":1222932,
			"type":"SCALAR"
		},
		{
			"bufferView":23,
			"componentType":5126,
			"count":2466,
			"max":[
				16.955799102783203,
				16.956480026245117,
				6.572969436645508
			],
			"min":[
				-16.955799102783203,
				-16.95648765563965,
				5.835725784301758
			],
			"type":"VEC3"
		},
		{
			"bufferView":24,
			"componentType":5126,
			"count":2466,
			"type":"VEC3"
		},
		{
			"bufferView":25,
			"componentType":5126,
			"count":2466,
			"type":"VEC2"
		},
		{
			"bufferView":26,
			"componentType":5126,
			"count":2466,
			"type":"VEC2"
		},
		{
			"bufferView":27,
			"componentType":5123,
			"count":4188,
			"type":"SCALAR"
		},
		{
			"bufferView":28,
			"componentType":5126,
			"count":3178,
			"max":[
				12.307149887084961,
				2.4862890243530273,
				-0.08048223704099655
			],
			"min":[
				-12.246755599975586,
				-2.486287832260132,
				-35.94906997680664
			],
			"type":"VEC3"
		},
		{
			"bufferView":29,
			"componentType":5126,
			"count":3178,
			"type":"VEC3"
		},
		{
			"bufferView":30,
			"componentType":5126,
			"count":3178,
			"type":"VEC2"
		},
		{
			"bufferView":31,
			"componentType":5123,
			"count":15036,
			"type":"SCALAR"
		},
		{
			"bufferView":32,
			"componentType":5126,
			"count":18981,
			"max":[
				5.17189884185791,
				6.679050922393799,
				0.12082489579916
			],
			"min":[
				-2.771186351776123,
				-1.766310691833496,
				-1.0587395429611206
			],
			"type":"VEC3"
		},
		{
			"bufferView":33,
			"componentType":5126,
			"count":18981,
			"type":"VEC3"
		},
		{
			"bufferView":34,
			"componentType":5126,
			"count":18981,
			"type":"VEC2"
		},
		{
			"bufferView":35,
			"componentType":5126,
			"count":18981,
			"type":"VEC2"
		},
		{
			"bufferView":36,
			"componentType":5126,
			"count":18981,
			"type":"VEC2"
		},
		{
			"bufferView":37,
			"componentType":5126,
			"count":18981,
			"type":"VEC2"
		},
		{
			"bufferView":38,
			"componentType":5126,
			"count":18981,
			"type":"VEC2"
		},
		{
			"bufferView":39,
			"componentType":5126,
			"count":18981,
			"type":"VEC2"
		},
		{
			"bufferView":40,
			"componentType":5126,
			"count":18981,
			"type":"VEC2"
		},
		{
			"bufferView":41,
			"componentType":5126,
			"count":18981,
			"type":"VEC2"
		},
		{
			"bufferView":42,
			"componentType":5123,
			"count":103020,
			"type":"SCALAR"
		},
		{
			"bufferView":43,
			"componentType":5126,
			"count":6629,
			"max":[
				6.851646900177002,
				3.6509509086608887,
				0
			],
			"min":[
				-6.862298488616943,
				-3.6690168380737305,
				-0.759913980960846
			],
			"type":"VEC3"
		},
		{
			"bufferView":44,
			"componentType":5126,
			"count":6629,
			"type":"VEC3"
		},
		{
			"bufferView":45,
			"componentType":5126,
			"count":6629,
			"type":"VEC2"
		},
		{
			"bufferView":46,
			"componentType":5123,
			"count":35220,
			"type":"SCALAR"
		},
		{
			"bufferView":47,
			"componentType":5126,
			"count":32994,
			"max":[
				4.999449253082275,
				8.8680419921875,
				6.431185722351074
			],
			"min":[
				-7.629792213439941,
				-4.999445915222168,
				-10.01231861114502
			],
			"type":"VEC3"
		},
		{
			"bufferView":48,
			"componentType":5126,
			"count":32994,
			"type":"VEC3"
		},
		{
			"bufferView":49,
			"componentType":5126,
			"count":32994,
			"type":"VEC2"
		},
		{
			"bufferView":50,
			"componentType":5123,
			"count":192312,
			"type":"SCALAR"
		},
		{
			"bufferView":51,
			"componentType":5126,
			"count":835,
			"max":[
				1.128421664237976,
				2.3702287673950195,
				1.1586859226226807
			],
			"min":[
				-1.157488465309143,
				1.447619080543518,
				-1.1272242069244385
			],
			"type":"VEC3"
		},
		{
			"bufferView":52,
			"componentType":5126,
			"count":835,
			"type":"VEC3"
		},
		{
			"bufferView":53,
			"componentType":5126,
			"count":835,
			"type":"VEC2"
		},
		{
			"bufferView":54,
			"componentType":5123,
			"count":2628,
			"type":"SCALAR"
		}
	],
	"bufferViews":[
		{
			"buffer":0,
			"byteLength":111168,
			"byteOffset":0,
			"target":34962
		},
		{
			"buffer":0,
			"byteLength":111168,
			"byteOffset":111168,
			"target":34962
		},
		{
			"buffer":0,
			"byteLength":74112,
			"byteOffset":222336,
			"target":34962
		},
		{
			"buffer":0,
			"byteLength":97896,
			"byteOffset":296448,
			"target":34963
		},
		{
			"buffer":0,
			"byteLength":294840,
			"byteOffset":394344,
			"target":34962
		},
		{
			"buffer":0,
			"byteLength":294840,
			"byteOffset":689184,
			"target":34962
		},
		{
			"buffer":0,
			"byteLength":196560,
			"byteOffset":984024,
			"target":34962
		},
		{
			"buffer":0,
			"byteLength":90240,
			"byteOffset":1180584,
			"target":34963
		},
		{
			"buffer":0,
			"byteLength":98040,
			"byteOffset":1270824,
			"target":34962
		},
		{
			"buffer":0,
			"byteLength":98040,
			"byteOffset":1368864,
			"target":34962
		},
		{
			"buffer":0,
			"byteLength":65360,
			"byteOffset":1466904,
			"target":34962
		},
		{
			"buffer":0,
			"byteLength":65360,
			"byteOffset":1532264,
			"target":34962
		},
		{
			"buffer":0,
			"byteLength":69120,
			"byteOffset":1597624,
			"target":34963
		},
		{
			"buffer":0,
			"byteLength":625116,
			"byteOffset":1666744,
			"target":34962
		},
		{
			"buffer":0,
			"byteLength":625116,
			"byteOffset":2291860,
			"target":34962
		},
		{
			"buffer":0,
			"byteLength":416744,
			"byteOffset":2916976,
			"target":34962
		},
		{
			"buffer":0,
			"byteLength":416744,
			"byteOffset":3333720,
			"target":34962
		},
		{
			"buffer":0,
			"byteLength":607656,
			"byteOffset":3750464,
			"target":34963
		},
		{
			"buffer":0,
			"byteLength":2502252,
			"byteOffset":4358120,
			"target":34962
		},
		{
			"buffer":0,
			"byteLength":2502252,
			"byteOffset":6860372,
			"target":34962
		},
		{
			"buffer":0,
			"byteLength":1668168,
			"byteOffset":9362624,
			"target":34962
		},
		{
			"buffer":0,
			"byteLength":1668168,
			"byteOffset":11030792,
			"target":34962
		},
		{
			"buffer":0,
			"byteLength":4891728,
			"byteOffset":12698960,
			"target":34963
		},
		{
			"buffer":0,
			"byteLength":29592,
			"byteOffset":17590688,
			"target":34962
		},
		{
			"buffer":0,
			"byteLength":29592,
			"byteOffset":17620280,
			"target":34962
		},
		{
			"buffer":0,
			"byteLength":19728,
			"byteOffset":17649872,
			"target":34962
		},
		{
			"buffer":0,
			"byteLength":19728,
			"byteOffset":17669600,
			"target":34962
		},
		{
			"buffer":0,
			"byteLength":8376,
			"byteOffset":17689328,
			"target":34963
		},
		{
			"buffer":0,
			"byteLength":38136,
			"byteOffset":17697704,
			"target":34962
		},
		{
			"buffer":0,
			"byteLength":38136,
			"byteOffset":17735840,
			"target":34962
		},
		{
			"buffer":0,
			"byteLength":25424,
			"byteOffset":17773976,
			"target":34962
		},
		{
			"buffer":0,
			"byteLength":30072,
			"byteOffset":17799400,
			"target":34963
		},
		{
			"buffer":0,
			"byteLength":227772,
			"byteOffset":17829472,
			"target":34962
		},
		{
			"buffer":0,
			"byteLength":227772,
			"byteOffset":18057244,
			"target":34962
		},
		{
			"buffer":0,
			"byteLength":151848,
			"byteOffset":18285016,
			"target":34962
		},
		{
			"buffer":0,
			"byteLength":151848,
			"byteOffset":18436864,
			"target":34962
		},
		{
			"buffer":0,
			"byteLength":151848,
			"byteOffset":18588712,
			"target":34962
		},
		{
			"buffer":0,
			"byteLength":151848,
			"byteOffset":18740560,
			"target":34962
		},
		{
			"buffer":0,
			"byteLength":151848,
			"byteOffset":18892408,
			"target":34962
		},
		{
			"buffer":0,
			"byteLength":151848,
			"byteOffset":19044256,
			"target":34962
		},
		{
			"buffer":0,
			"byteLength":151848,
			"byteOffset":19196104,
			"target":34962
		},
		{
			"buffer":0,
			"byteLength":151848,
			"byteOffset":19347952,
			"target":34962
		},
		{
			"buffer":0,
			"byteLength":206040,
			"byteOffset":19499800,
			"target":34963
		},
		{
			"buffer":0,
			"byteLength":79548,
			"byteOffset":19705840,
			"target":34962
		},
		{
			"buffer":0,
			"byteLength":79548,
			"byteOffset":19785388,
			"target":34962
		},
		{
			"buffer":0,
			"byteLength":53032,
			"byteOffset":19864936,
			"target":34962
		},
		{
			"buffer":0,
			"byteLength":70440,
			"byteOffset":19917968,
			"target":34963
		},
		{
			"buffer":0,
			"byteLength":395928,
			"byteOffset":19988408,
			"target":34962
		},
		{
			"buffer":0,
			"byteLength":395928,
			"byteOffset":20384336,
			"target":34962
		},
		{
			"buffer":0,
			"byteLength":263952,
			"byteOffset":20780264,
			"target":34962
		},
		{
			"buffer":0,
			"byteLength":384624,
			"byteOffset":21044216,
			"target":34963
		},
		{
			"buffer":0,
			"byteLength":10020,
			"byteOffset":21428840,
			"target":34962
		},
		{
			"buffer":0,
			"byteLength":10020,
			"byteOffset":21438860,
			"target":34962
		},
		{
			"buffer":0,
			"byteLength":6680,
			"byteOffset":21448880,
			"target":34962
		},
		{
			"buffer":0,
			"byteLength":5256,
			"byteOffset":21455560,
			"target":34963
		}
	],
	"buffers":[
		{
			"byteLength":21460816,
			"uri":"sus.bin"
		}
	]
}
